<?xml version="1.0" encoding="UTF-8"?>
<svg width="94px" height="75px" viewBox="0 0 94 75" version="1.1" xmlns="http://www.w3.org/2000/svg" xmlns:xlink="http://www.w3.org/1999/xlink">
    <!-- Generator: Sketch 53.1 (72631) - https://sketchapp.com -->
    <title>LOGO EA/DESKTOP</title>
    <desc>Created with Sketch.</desc>
    <defs>
        <polygon id="path-1" points="0 74.4672414 93.8678082 74.4672414 93.8678082 0 0 0"></polygon>
    </defs>
    <g id="Symbols" stroke="none" stroke-width="1" fill="none" fill-rule="evenodd">
        <g id="NAV/HORIZONTALE-MON-COMPTE-OPEN" transform="translate(-166.000000, -43.000000)">
            <g id="LOGO-EA/DESKTOP" transform="translate(166.000000, 43.000000)">
                <g id="LOGO-EA">
                    <path d="M30.387637,39.9060776 C29.4246233,39.9060776 28.6503082,39.2504741 28.6503082,38.4086638 C28.6503082,37.5875431 29.4246233,36.8970259 30.387637,36.8970259 C31.3636644,36.8970259 32.1379795,37.5875431 32.1379795,38.4086638 C32.1379795,39.2504741 31.3636644,39.9060776 30.387637,39.9060776" id="Fill-1" fill="#00239C"></path>
                    <path d="M22.7072123,52.875 C21.3186507,52.875 20.0693356,52.5271552 19.3744041,52.0758621 L20.1669384,50.1219828 C20.1669384,50.1219828 21.0739932,50.6456897 22.2439247,50.6676724 C23.0963219,50.6818966 23.6611164,50.1543103 23.6611164,49.4534483 C23.6611164,47.8060345 19.7687192,48.1939655 19.6463904,44.7931034 C19.5813219,42.9038793 21.1755,41.412931 23.4555,41.375431 C25.4622123,41.3405172 26.7583767,42.0918103 26.7583767,42.0918103 L26.0504315,43.9668103 C25.6535137,43.775431 24.9924178,43.4547414 24.1868699,43.4392241 C23.2225548,43.4211207 22.815226,43.974569 22.8763904,44.6172414 C23.0065274,46.0060345 27.0355685,45.9465517 27.0355685,49.3732759 C27.0355685,51.3168103 25.4075548,52.875 22.7072123,52.875" id="Fill-3" fill="#00239C"></path>
                    <path d="M36.8239521,52.875 C35.4301849,52.875 34.1899795,52.5271552 33.4859384,52.0758621 L34.2862808,50.1219828 C34.2862808,50.1219828 35.1803219,50.6456897 36.3502534,50.6676724 C37.2052534,50.6818966 37.7687466,50.1543103 37.7687466,49.4534483 C37.7687466,47.8060345 33.889363,48.1939655 33.7670342,44.7931034 C33.6850479,42.9038793 35.2818288,41.412931 37.5579247,41.375431 C39.5802534,41.3405172 40.8686096,42.0918103 40.8686096,42.0918103 L40.1541575,43.9668103 C39.7624452,43.775431 39.0987466,43.4547414 38.2971027,43.4392241 C37.3288836,43.4211207 36.9358699,43.974569 36.9944315,44.6172414 C37.1141575,46.0060345 41.1392945,45.9465517 41.1392945,49.3732759 C41.1392945,51.3168103 39.5229932,52.875 36.8239521,52.875" id="Fill-5" fill="#00239C"></path>
                    <path d="M14.4636849,52.875 C13.0816301,52.875 11.8258082,52.5271552 11.1334795,52.0758621 L11.9247123,50.1219828 C11.9247123,50.1219828 12.8330685,50.6456897 14.0043014,50.6676724 C14.8527945,50.6818966 15.4201918,50.1543103 15.4201918,49.4534483 C15.4201918,47.8060345 11.5303973,48.1939655 11.4093699,44.7931034 C11.343,42.9038793 12.933274,41.412931 15.2080685,41.375431 C17.2186849,41.3405172 18.5239589,42.0918103 18.5239589,42.0918103 L17.8108082,43.9668103 C17.4021781,43.775431 16.7501918,43.4547414 15.9485479,43.4392241 C14.9764247,43.4211207 14.5743014,43.974569 14.6315616,44.6172414 C14.7538904,46.0060345 18.7920411,45.9465517 18.7920411,49.3732759 C18.7920411,51.3168103 17.1653288,52.875 14.4636849,52.875" id="Fill-7" fill="#00239C"></path>
                    <path d="M42.617911,39.2292672 L45.8101712,38.4081466 L45.8101712,41.5827155 L47.7257877,41.5827155 L47.7257877,43.6684914 L45.8101712,43.6684914 L45.8101712,49.3943534 C45.8101712,50.23875 46.1159932,50.6628879 46.8239384,50.6913362 C47.0920205,50.6965086 47.4590068,50.6460776 47.7257877,50.5659052 L47.7257877,52.5482328 C47.4590068,52.6697845 46.6664726,52.8559914 45.9259932,52.8559914 C43.6147603,52.8559914 42.617911,51.3572845 42.617911,49.6426293 L42.617911,39.2292672 Z" id="Fill-9" fill="#00239C"></path>
                    <path d="M53.6769521,52.8977586 C50.6135274,52.8977586 48.8644863,51.7042241 48.8644863,49.3947414 C48.8644863,46.5343966 51.6338014,45.6874138 54.8104452,45.3706034 L54.8104452,44.9218966 C54.8104452,43.7787931 54.2040068,43.4464655 53.0848288,43.4464655 C51.787363,43.4464655 50.2022945,44.1563793 50.2022945,44.1563793 L49.7155822,42.1882759 C49.7155822,42.1882759 51.3045548,41.3762069 53.6587329,41.3762069 C56.0532534,41.3762069 57.9896918,42.4210345 57.9896918,45.4339655 L57.9896918,51.8128448 C57.1164726,52.4089655 55.5079795,52.8977586 53.6769521,52.8977586 L53.6769521,52.8977586 Z M54.8104452,46.8589655 C52.9768151,47.0451724 52.037226,47.7072414 52.037226,49.2693103 C52.037226,50.565 52.797226,51.1326724 53.8266096,51.1326724 C54.282089,51.1326724 54.5397603,51.0512069 54.8104452,50.9025 L54.8104452,46.8589655 Z" id="Fill-11" fill="#00239C"></path>
                    <path d="M65.7521027,52.6931897 L65.7521027,44.9177586 C65.7521027,44.1380172 65.4072397,43.3828448 64.1253904,43.3828448 C63.8208699,43.3828448 63.4057329,43.4681897 63.0725822,43.6052586 L63.0725822,52.6931897 L59.8764178,52.6931897 L59.8764178,42.3186207 C61.1712808,41.7444828 62.699089,41.3759483 64.204774,41.3759483 C67.7015548,41.3759483 68.9560753,42.8862931 68.9560753,44.9009483 L68.9560753,52.6931897 L65.7521027,52.6931897 Z" id="Fill-13" fill="#00239C"></path>
                    <path d="M83.8015822,41.3759483 C80.708226,41.3759483 78.8173356,43.6259483 78.8173356,47.1043966 C78.8173356,50.6462069 80.8474726,52.8975 84.1360342,52.8975 C85.613089,52.8975 86.6685,52.6556897 87.8748699,52.1462069 L87.8748699,49.8431897 C86.6567877,50.4134483 85.6677466,50.6914655 84.4978151,50.6914655 C82.928363,50.6914655 82.3987055,49.8897414 82.1644589,48.2668966 L88.3485685,47.3087069 C88.4917192,43.5625862 86.9131575,41.3759483 83.8015822,41.3759483 L83.8015822,41.3759483 Z M81.9705548,46.6957759 C81.8716507,44.4031034 82.4104178,43.2793966 83.6779521,43.2793966 C84.8114452,43.2793966 85.4621301,44.1393103 85.4621301,46.122931 L81.9705548,46.6957759 Z" id="Fill-15" fill="#00239C"></path>
                    <path d="M75.5549315,52.8977586 C72.6346575,52.8977586 70.4991096,50.8352586 70.4991096,47.1059483 C70.4991096,43.3585345 72.7986301,41.3762069 75.5328082,41.3762069 C76.9513014,41.3762069 77.995,41.765431 78.5363699,42.1792241 L77.8089041,43.9533621 C77.4939726,43.7283621 77.0645205,43.5227586 76.3474658,43.5227586 C74.8092466,43.5227586 73.7278082,44.7925862 73.7278082,47.0658621 C73.7278082,49.3158621 74.9211644,50.6076724 76.3227397,50.6076724 C76.9955479,50.6076724 77.4471233,50.4460345 77.8089041,50.1550862 L78.5597945,52.0999138 C78.0379452,52.5512069 76.7938356,52.8977586 75.5549315,52.8977586" id="Fill-17" fill="#00239C"></path>
                    <path d="M5.48241096,52.8977586 C2.41247945,52.8977586 0.662136986,51.7068103 0.662136986,49.3947414 C0.662136986,46.5343966 3.43405479,45.6874138 6.61850685,45.3706034 L6.61850685,44.9218966 C6.61850685,43.7787931 6.00426027,43.4464655 4.89419178,43.4464655 C3.58891781,43.4464655 2.00515068,44.1563793 2.00515068,44.1563793 L1.52754795,42.1882759 C1.52754795,42.1882759 3.11131507,41.3762069 5.46158904,41.3762069 C7.8600137,41.3762069 9.80686301,42.4210345 9.80686301,45.4339655 L9.80686301,51.8128448 C8.91932877,52.4089655 7.31083562,52.8977586 5.48241096,52.8977586 L5.48241096,52.8977586 Z M6.61850685,46.8589655 C4.77446575,47.0451724 3.84008219,47.7072414 3.84008219,49.2693103 C3.84008219,50.565 4.59747945,51.1326724 5.63727397,51.1326724 C6.08364384,51.1326724 6.34261644,51.0512069 6.61850685,50.9025 L6.61850685,46.8589655 Z" id="Fill-19" fill="#00239C"></path>
                    <mask id="mask-2" fill="white">
                        <use xlink:href="#path-1"></use>
                    </mask>
                    <g id="Clip-22"></g>
                    <polygon id="Fill-21" fill="#00239C" mask="url(#mask-2)" points="28.7980137 52.6926724 31.990274 52.6926724 31.990274 41.5823276 28.7980137 41.5823276"></polygon>
                    <path d="M65.0143562,21.6618103 C61.7791507,21.6618103 60.1992877,22.8087931 60.1992877,25.5553448 L60.1992877,33.27 L63.536,33.27 L63.536,25.3781897 C63.536,24.557069 63.9771644,23.9467241 65.0989452,23.8717241 C65.3331918,23.8549138 65.5895616,23.8652586 65.8329178,23.8859483 L66.2233288,21.7381034 C65.8029863,21.6850862 65.400863,21.6618103 65.0143562,21.6618103" id="Fill-23" fill="#00239C" mask="url(#mask-2)"></path>
                    <path d="M53.4316438,33.4809052 C50.1990411,33.4809052 48.6100685,32.2796121 48.6100685,29.5304741 L48.6139726,21.86625 L51.9350685,21.86625 L51.9350685,29.7632328 C51.9350685,30.5856466 52.3827397,31.2580603 53.5136301,31.2580603 C54.1057534,31.2580603 54.5326027,31.1753017 54.8969863,30.9878017 L54.8969863,21.86625 L58.2271918,21.86625 L58.2271918,32.4218534 C57.084589,32.9778879 55.0843836,33.4809052 53.4316438,33.4809052" id="Fill-24" fill="#00239C" mask="url(#mask-2)"></path>
                    <path d="M71.3325068,33.4809052 C68.0127123,33.4809052 66.2727808,30.9632328 66.2727808,27.5597845 C66.2727808,24.1550431 68.0127123,21.6619397 71.3103836,21.6619397 C74.6640137,21.6619397 76.4000411,24.1550431 76.4000411,27.5597845 C76.4000411,30.9632328 74.6640137,33.4809052 71.3325068,33.4809052 M71.3325068,23.7024569 C69.8697671,23.7024569 69.5704521,25.4817672 69.5704521,27.5171121 C69.5704521,29.5744397 69.8918904,31.2360776 71.3325068,31.2360776 C72.8069589,31.2360776 73.1036712,29.5744397 73.1036712,27.5171121 C73.1036712,25.4817672 72.8069589,23.7024569 71.3325068,23.7024569" id="Fill-25" fill="#00239C" mask="url(#mask-2)"></path>
                    <path d="M83.0677397,33.4184483 C82.3623973,33.4184483 81.7390411,33.3331034 81.4019863,33.2283621 L81.4019863,37.014569 L78.079589,37.014569 L78.079589,22.502069 C79.0621233,22.0171552 80.4181507,21.6615517 82.4717123,21.6615517 C85.9008219,21.6615517 88.1157534,23.6581034 88.1157534,27.4973276 C88.1157534,31.1542241 86.0439726,33.4184483 83.0677397,33.4184483 M82.4326712,23.5960345 C81.974589,23.5960345 81.6765753,23.6581034 81.4019863,23.7667241 L81.4019863,31.3210345 C81.615411,31.4037931 81.9069178,31.4697414 82.2713014,31.4697414 C84.0411644,31.4697414 84.8258904,30.0990517 84.8258904,27.5361207 C84.8258904,24.9757759 84.1921233,23.5960345 82.4326712,23.5960345" id="Fill-26" fill="#00239C" mask="url(#mask-2)"></path>
                    <path d="M42.3904315,21.6618103 C39.1370068,21.6618103 37.1901575,23.9557759 37.1901575,27.5389655 C37.1901575,31.4247414 39.310089,33.4807759 42.7418014,33.4807759 C44.2539932,33.4807759 45.3679658,33.2337931 46.6068699,32.720431 L46.6068699,30.3553448 C45.3549521,30.9294828 44.3164589,31.220431 43.1126918,31.220431 C41.4690616,31.220431 40.8678288,30.3786207 40.6361849,28.7027586 L47.1196096,27.7497414 C47.275774,23.8898276 45.6282397,21.6618103 42.3904315,21.6618103 L42.3904315,21.6618103 Z M40.4344726,27.1031897 C40.3251575,24.7549138 40.925089,23.5962931 42.2641986,23.5962931 C43.440637,23.5962931 44.1095411,24.4962931 44.1095411,26.5122414 L40.4344726,27.1031897 Z" id="Fill-27" fill="#00239C" mask="url(#mask-2)"></path>
                    <path d="M2.94955479,6.09905172 C1.67811644,7.84862069 -0.953253425,15.327931 0.354623288,22.4516379 C1.47770548,29.6244828 6.3175,35.0956034 14.1257192,35.7550862 C17.6185959,36.1249138 20.8160616,35.5275 22.2163356,34.6468966 C22.242363,34.6300862 22.9516096,34.1619828 22.9516096,33.4908621 C22.9516096,33.4908621 14.8492808,34.6727586 11.4514041,31.0831034 C8.44003425,27.902069 10.627637,23.9852586 10.627637,23.9852586 C11.8938699,21.339569 15.092637,18.24 15.092637,18.24 C15.092637,18.24 19.2296918,14.1990517 20.5193493,11.8908621 C21.162226,10.7425862 21.5005822,9.54 21.5201027,8.50034483 C21.5604452,6.33051724 19.9779795,5.46025862 19.5003767,5.2275 C15.1863356,3.11456897 6.42030822,4.78655172 2.94955479,6.09905172" id="Fill-28" fill="#00239C" mask="url(#mask-2)"></path>
                    <path d="M29.4574178,29.7671121 C30.7275548,28.0175431 33.3589247,20.5382328 32.0510479,13.4145259 C30.9279658,6.24168103 26.0881712,0.770560345 18.2812534,0.111077586 C14.7883767,-0.25875 11.590911,0.338663793 10.190637,1.21926724 C10.1646096,1.23607759 9.45406164,1.70418103 9.45406164,2.37530172 C9.45406164,2.37530172 17.5563904,1.19340517 20.9555685,4.78306034 C23.965637,7.96409483 21.7793356,11.8809052 21.7793356,11.8809052 C20.5131027,14.5265948 17.3143356,17.6248707 17.3143356,17.6248707 C17.3143356,17.6248707 13.1759795,21.6671121 11.8876233,23.9753017 C11.2434452,25.1235776 10.9063904,26.3248707 10.8855685,27.365819 C10.8465274,29.5356466 12.4276918,30.4059052 12.9052945,30.6386638 C17.220637,32.7515948 25.985363,31.0796121 29.4574178,29.7671121" id="Fill-29" fill="#E4002B" mask="url(#mask-2)"></path>
                    <path d="M58.5170068,66.2353448 C58.4128973,66.3258621 58.3022808,66.6077586 58.1851575,67.0732759 C58.0654315,67.5400862 58.0081712,67.9474138 58.0081712,68.2926724 C58.0081712,68.7413793 58.3035822,68.9663793 58.8970068,68.9663793 C59.4683082,68.9663793 60.135911,68.6340517 60.9037192,67.9732759 C61.6481027,67.3293103 62.1621438,66.662069 62.4510479,65.9767241 C62.4510479,65.9767241 62.9911164,65.8241379 62.8401575,66.2702586 C62.5083082,67.2556034 61.9474178,68.0405172 61.1626918,68.6818966 C60.4196096,69.2961207 59.6726233,69.6051724 58.9230342,69.6051724 C58.3699521,69.6051724 57.9535137,69.4163793 57.6685137,69.0349138 C57.3926233,68.6741379 57.2715959,68.1840517 57.3067329,67.5672414 C57.3509795,66.7021552 57.8129658,65.6301724 58.690089,64.3512931 C59.6296781,62.9806034 60.4846781,62.2965517 61.2576918,62.2939655 C61.8927603,62.2913793 62.0111849,63.0258621 62.0111849,63.2198276 C62.0111849,63.7836207 61.7717329,64.4327586 61.2928288,65.1646552 C60.7267329,66.0452586 60.0799521,66.4525862 59.3485822,66.4849138 C58.7863904,66.5133621 58.5170068,66.2353448 58.5170068,66.2353448 M61.1548836,62.900431 C60.9362534,62.9521552 60.7371438,63.0840517 60.5575548,63.2974138 C59.3589932,64.7030172 58.7590616,65.5215517 58.7590616,65.7517241 C58.7590616,65.8150862 58.8918014,65.8551724 59.1572808,65.8732759 C59.6075548,65.8952586 60.0955685,65.574569 60.6278288,64.9060345 C61.1470753,64.2530172 61.4047466,63.6737069 61.4047466,63.1603448 C61.4047466,62.9405172 61.3214589,62.8551724 61.1548836,62.900431" id="Fill-30" fill="#E4002B" mask="url(#mask-2)"></path>
                    <path d="M84.0074589,66.2353448 C83.9033493,66.3258621 83.7914315,66.6077586 83.6743082,67.0732759 C83.5558836,67.5400862 83.4960205,67.9474138 83.4960205,68.2926724 C83.4960205,68.7413793 83.7940342,68.9663793 84.3874589,68.9663793 C84.9574589,68.9663793 85.626363,68.6340517 86.3928699,67.9732759 C87.1372534,67.3293103 87.6525959,66.662069 87.9415,65.9767241 C87.9415,65.9767241 88.4802671,65.8241379 88.3306096,66.2702586 C88.0000616,67.2556034 87.4378699,68.0405172 86.6544452,68.6818966 C85.9100616,69.2961207 85.161774,69.6051724 84.4134863,69.6051724 C83.8604041,69.6051724 83.4439658,69.4163793 83.1589658,69.0349138 C82.8830753,68.6741379 82.7607466,68.1840517 82.7971849,67.5672414 C82.8427329,66.7021552 83.3034178,65.6301724 84.1792397,64.3512931 C85.1188288,62.9806034 85.9751301,62.2939655 86.7481438,62.2939655 C87.0097192,62.2939655 87.2075274,62.4155172 87.346774,62.6573276 C87.4482808,62.8357759 87.501637,63.0258621 87.501637,63.2198276 C87.501637,63.7836207 87.2608836,64.4327586 86.7832808,65.1646552 C86.2171849,66.0452586 85.5691027,66.4525862 84.8377329,66.4849138 C84.2768425,66.5133621 84.0074589,66.2353448 84.0074589,66.2353448 M86.6453356,62.900431 C86.4254041,62.9521552 86.2275959,63.0840517 86.0480068,63.2974138 C84.8494452,64.7030172 84.2508151,65.5215517 84.2508151,65.7517241 C84.2508151,65.8150862 84.3822534,65.8551724 84.6477329,65.8732759 C85.0980068,65.8952586 85.5860205,65.574569 86.1182808,64.9060345 C86.6375274,64.2530172 86.8965,63.6737069 86.8965,63.1603448 C86.8965,62.9405172 86.811911,62.8551724 86.6453356,62.900431" id="Fill-31" fill="#E4002B" mask="url(#mask-2)"></path>
                    <path d="M71.1101027,63.6693103 C70.9786644,63.6835345 70.8133904,63.564569 70.6181849,63.3589655 C70.4203767,63.1507759 70.2251712,63.0460345 70.0286644,63.0460345 C69.3207192,63.0460345 68.5958562,63.7003448 67.8592808,65.0076724 C67.2059932,66.1675862 66.8806507,67.0714655 66.8806507,67.7218966 C66.8806507,68.4486207 67.1864726,68.8106897 67.7981164,68.8106897 C68.4032534,68.8106897 69.0031849,68.6141379 69.5966096,68.214569 C70.1457877,67.8447414 70.6142808,67.3585345 71.0059932,66.7546552 C71.0398288,66.6912931 71.0866781,66.6473276 71.1439384,66.6602586 C71.3781849,66.7068103 71.4458562,66.9731897 71.4120205,67.0236207 C70.3982534,68.5662931 69.5549658,69.0033621 69.4417466,69.0796552 C68.6544178,69.5968966 68.1820205,69.5917241 67.9282534,69.5891379 C67.3283219,69.5826724 66.8754452,69.3731897 66.5696233,68.94 C66.3171575,68.5843966 66.1896233,68.1369828 66.1896233,67.6016379 C66.1896233,66.7546552 66.5696233,65.7227586 67.332226,64.5072414 C68.2080479,63.1068103 69.1359247,62.4033621 70.1145548,62.3994828 C70.2824315,62.3994828 70.527089,62.4706034 70.8511301,62.615431 C71.2714726,62.7990517 71.4901027,63.0253448 71.5083219,63.2891379 C71.5200342,63.4042241 71.462774,63.6305172 71.1101027,63.6693103" id="Fill-32" fill="#E4002B" mask="url(#mask-2)"></path>
                    <path d="M80.1898904,64.8703448 C80.9030411,63.0496552 81.6695479,62.1393103 82.4907123,62.1393103 C83.0307808,62.1393103 83.3470137,62.3862931 83.4407123,62.8828448 C83.4927671,63.1815517 83.393863,63.3328448 83.1466027,63.3328448 C83.0646164,63.3328448 83.0021507,63.3005172 82.9735205,63.2281034 C82.9396849,63.1492241 82.8876301,62.9177586 82.8876301,62.9177586 C82.8642055,62.8000862 82.788726,62.7444828 82.6611918,62.7444828 C82.3800959,62.7444828 82.0196164,63.0444828 81.5810548,63.6431897 C81.0670137,64.3518103 80.7078356,64.997069 80.5009178,65.5802586 C80.2809863,66.2022414 80.1768767,66.9160345 80.1898904,67.7216379 C80.1898904,67.7513793 80.2328356,68.2194828 80.2497534,69.1298276 C80.2549589,69.4531034 79.8567397,69.5811207 79.7474247,69.5811207 C79.4259863,69.5811207 79.284137,69.3289655 79.3244795,68.8298276 C79.428589,67.6634483 79.4806438,66.6975 79.4806438,65.9242241 C79.4806438,65.1289655 79.428589,64.2263793 79.3244795,63.2125862 C79.3127671,63.0962069 79.4806438,62.7173276 79.808589,62.6733621 C79.9972877,62.6513793 80.1352329,62.7716379 80.2224247,62.9591379 C80.2861918,63.1000862 80.3109178,63.2281034 80.2926986,63.3496552 C80.2172192,63.9548276 80.1820822,64.4617241 80.1898904,64.8703448" id="Fill-33" fill="#E4002B" mask="url(#mask-2)"></path>
                    <path d="M55.9651507,62.4116379 C55.8272055,62.1801724 55.667137,61.9202586 55.2845342,61.8943966 C55.0034384,61.8982759 54.8095342,62.0935345 54.6976164,62.2978448 C54.6039178,62.4672414 54.6624795,62.6818966 54.8329589,62.7788793 C54.9943288,62.8693966 55.1973425,62.8189655 55.2975479,62.6676724 C55.6372055,63.174569 55.7387123,64.5517241 55.7387123,65.0844828 C55.7400137,66.2237069 55.4966575,67.2530172 55.1400822,67.9693966 C54.7835068,68.7 54.3241233,69.0478448 54.0156986,69.0310345 C53.9545342,69.0310345 53.2765205,68.975431 52.8353562,68.0637931 C52.616726,67.6137931 52.5412466,66.9943966 52.5412466,66.287069 C52.5412466,65.4465517 52.662274,64.4806034 52.8210411,63.4978448 C52.8991233,63.0181034 52.3056986,63.0982759 52.282274,63.0982759 C52.1104932,63.0982759 51.962137,63.3025862 51.8411096,63.7125 C51.7161781,64.1573276 51.617274,64.5012931 51.547,64.7482759 C51.286726,65.4931034 50.9678904,66.2547414 50.5878904,67.0318966 C50.0113836,68.2176724 49.5611096,68.8112069 49.2383699,68.8112069 C49.0991233,68.8112069 49.0379589,68.4362069 49.0952192,67.7262931 C49.1277534,67.125 49.386726,65.8202586 49.671726,64.1262931 C49.7563151,63.6090517 49.5650137,63.4616379 49.2995342,63.4616379 C48.9989178,63.4616379 48.7854932,63.924569 48.6592603,64.8543103 C48.5408356,65.9392241 48.4861781,66.837931 48.4510411,67.4547414 C48.4289178,67.8 48.4692603,68.1918103 48.5733699,68.6301724 C48.7269315,69.2625 48.9793973,69.5793103 49.3242603,69.5793103 C49.8083699,69.5793103 50.3939863,68.8512931 51.0811096,67.3939655 C51.4038493,66.6362069 51.6628219,66.0116379 51.867137,65.5137931 C51.7708356,66.8948276 51.9217945,67.7560345 52.1924795,68.3521552 C52.7195342,69.5146552 53.7202877,69.7357759 54.0156986,69.737069 C54.7822055,69.7383621 55.3587123,69.1060345 55.7725479,68.2810345 C56.1850822,67.4443966 56.4427534,66.3232759 56.4440548,65.0844828 C56.4440548,64.5051724 56.3243288,63.0297414 55.9651507,62.4116379" id="Fill-34" fill="#E4002B" mask="url(#mask-2)"></path>
                    <path d="M77.9841986,67.7899138 C77.7551575,67.7808621 77.6120068,67.9166379 77.5508425,68.1623276 C77.5026918,68.3614655 77.2033767,68.3925 77.1109795,68.3718103 C76.8520068,68.3019828 76.7218699,67.9722414 76.7218699,67.3851724 C76.7218699,67.0631897 76.8624178,66.1606034 77.1448151,64.68 C77.215089,64.3412069 77.0732397,64.1692241 76.7218699,64.1692241 C76.4733082,64.1692241 76.4043356,64.2312931 76.3197466,64.4291379 C76.2247466,64.6593103 76.1297466,65.3110345 76.050363,65.9666379 C75.2916644,67.1110345 74.6813219,67.8856034 74.2141301,68.3588793 C73.745637,68.8450862 73.4046781,68.9847414 73.3278973,68.9705172 C73.1457055,68.9381897 73.0845411,68.3769828 73.0884452,68.0291379 C73.0793356,66.8808621 73.5205,65.0989655 73.9239247,64.317931 C74.3924178,63.4062931 74.935089,63.155431 75.3437192,63.1541379 C75.790089,63.1541379 76.1323493,63.467069 76.1713904,63.8213793 C76.1948151,64.0140517 76.3705,64.1511207 76.5644041,64.1291379 C76.7570068,64.1058621 76.8962534,63.93 76.8728288,63.7373276 L76.8728288,63.7347414 C76.7791301,62.9950862 76.1193356,62.4493966 75.3437192,62.4493966 C74.6136507,62.4468103 73.8289247,62.9330172 73.2940616,63.9985345 C72.8242671,64.9437931 72.3896096,66.7205172 72.3818014,68.0291379 C72.3844041,68.43 72.4208425,68.7868966 72.5444726,69.0907759 C72.6498836,69.3817241 72.9348836,69.6765517 73.3109795,69.6765517 C73.3161849,69.6765517 73.3213904,69.6765517 73.3278973,69.6739655 C73.7833767,69.6584483 74.1881027,69.3778448 74.7151575,68.8528448 C75.0743356,68.4881897 75.4894726,67.9851724 75.965774,67.3256897 C76.0282397,68.1675 76.2989247,68.6756897 76.7765274,68.8450862 C76.9092671,68.8968103 77.7694726,69.1683621 78.140363,68.2489655 C78.1755,68.1571552 78.3043356,67.8080172 77.9841986,67.7899138" id="Fill-35" fill="#E4002B" mask="url(#mask-2)"></path>
                    <path d="M8.60426712,67.7822845 L8.60426712,67.7822845 C8.60426712,66.8680603 8.82419863,65.8853017 9.25234932,64.8353017 C9.69221233,63.7995259 10.1528973,63.0844397 10.7736507,63.1930603 C10.8777603,62.9861638 11.1133082,62.8296983 11.4321438,62.6693534 C11.7900205,62.4986638 12.0541986,62.4068534 12.2767329,62.4029741 C13.965911,62.3551293 13.9099521,64.7240948 13.9099521,64.7240948 C13.9255685,65.42625 13.5728973,66.4465086 12.9495411,67.5702155 C12.2025548,68.9189224 11.3644726,69.6805603 10.405363,69.7671983 C10.405363,69.7671983 8.69536301,69.96375 8.60426712,67.7822845 M10.9493356,64.37625 C10.050089,65.5568534 9.61673288,66.6417672 9.61803425,67.6361638 C9.61543151,68.0719397 9.64926712,68.8128879 10.1216644,68.8154741 C10.6877603,68.8245259 11.3280342,68.2736638 11.970911,67.0465086 C12.5357055,65.9874569 12.8089932,65.1443534 12.8063904,64.5417672 C12.8141986,63.4309914 12.4485137,63.3055603 12.2767329,63.301681 C11.9839247,63.3003879 11.6455685,63.4568534 11.2629658,63.8150431 C11.2369384,63.9831466 11.1276233,64.1240948 10.9493356,64.37625" id="Fill-36" fill="#00239C" mask="url(#mask-2)"></path>
                    <path d="M14.405774,67.9375862 L14.405774,67.9375862 C14.4083767,67.584569 14.5749521,66.7556897 14.9041986,65.3811207 C15.0955,64.6013793 15.2724863,64.0117241 15.4377603,63.6031034 C15.6160479,63.2087069 15.7227603,62.9526724 16.0298836,62.9035345 C16.1834452,62.8712069 16.7495411,63.06 16.7417329,63.4518103 C16.7391301,63.6237931 16.5152945,64.1255172 16.5152945,64.1255172 C15.785226,66.0858621 15.4247466,67.4681897 15.4273493,68.2143103 C15.4208425,68.5518103 15.4885137,68.7561207 15.5145411,68.7716379 C15.595226,68.7832759 15.9361849,68.5505172 16.3474178,68.0306897 C16.8094041,67.460431 17.2726918,66.7272414 17.7294726,65.8298276 C18.2435137,64.8289655 18.4933767,64.0660345 18.4972808,63.5862931 C18.5024863,63.3703448 18.6404315,62.7367241 19.2182397,62.6798276 C19.740089,62.6901724 19.8546096,63.0949138 19.820774,63.2798276 C19.8181712,63.3781034 19.7674178,63.6302586 19.665911,64.1578448 C19.5657055,64.6686207 19.5188562,65.1496552 19.5188562,65.6048276 C19.5175548,66.5009483 19.5891301,67.1681897 19.7205685,67.5897414 C19.8598151,68.0216379 20.0185822,68.1509483 20.1877603,68.1496552 C20.2515274,68.1509483 20.3608425,68.1082759 20.5013904,67.9647414 C20.5846781,67.8832759 20.6926918,67.8018103 20.830637,67.71 C20.8944041,67.6699138 20.9763904,67.6750862 21.0323493,67.7242241 C21.1676918,67.847069 21.2705,67.9466379 21.2822123,68.1199138 C21.280911,68.4134483 21.0791986,68.6462069 20.7746781,68.8181897 C20.5300205,68.9578448 20.3231027,69.0393103 20.1265959,69.0406034 C19.6099521,69.0444828 19.1844041,68.7393103 18.9098151,68.2143103 C18.6755685,67.772069 18.5194041,67.1694828 18.4296096,66.3975 C17.9611164,67.3634483 17.6513904,67.9673276 17.4848151,68.2272414 C16.4346096,69.8811207 15.3752945,69.7324138 15.3752945,69.7324138 C15.0499521,69.7324138 14.4005685,69.5371552 14.405774,67.9375862" id="Fill-37" fill="#00239C" mask="url(#mask-2)"></path>
                    <path d="M30.6183699,61.2409914 L30.6248767,61.2409914 C30.8422055,61.2409914 30.9892603,61.1853879 31.1206986,61.048319 C31.1948767,60.9694397 31.4616575,60.4754741 31.1037808,60.0875431 C30.731589,59.7422845 30.2813151,59.9685776 30.1667945,60.1457328 C29.8778904,60.586681 30.0652877,60.8879741 30.1706986,61.0134052 C30.2787123,61.1530603 30.4426849,61.2409914 30.6183699,61.2409914 M30.7367945,68.6646983 C30.5454932,68.8832328 30.4556986,68.8974569 30.4439863,68.8974569 C30.4439863,68.8974569 30.1863151,69.01125 29.9390548,68.3052155 C29.8687808,67.974181 29.387274,66.7819397 30.0730959,64.3845259 C30.0730959,64.3845259 30.3229589,63.7418534 30.326863,63.5440086 C30.3216575,62.9931466 29.9286438,62.923319 29.7698767,62.9246121 C29.4991918,62.9310776 29.3143973,63.1405603 29.1777534,63.4263362 C28.7378904,64.4478879 28.6324795,66.0849569 28.6324795,66.61125 C28.6324795,67.1905603 28.7378904,67.7828017 28.9448082,68.3853879 C29.2337123,69.2595259 29.7048082,69.7793534 30.3580959,69.7806466 C30.5324795,69.7793534 31.2833699,69.5944397 31.2703562,69.0565086 C31.1779589,68.5030603 30.8304932,68.5586638 30.7367945,68.6646983" id="Fill-38" fill="#00239C" mask="url(#mask-2)"></path>
                    <path d="M37.7250205,68.9680603 C37.2682397,68.3603017 37.3228973,67.4590086 37.3281027,67.3878879 C37.3788562,66.4723707 37.8564589,65.3822845 38.7413904,64.0878879 C39.6926918,62.7055603 40.5685137,61.9659052 41.4495411,61.9568534 C41.7631712,61.951681 42.0364589,62.1223707 42.1926233,62.4042672 C42.3084452,62.6046983 42.3696096,62.8245259 42.3696096,63.050819 C42.3683082,63.66375 42.1132397,64.3400431 41.625226,65.0848707 C41.0487192,65.9939224 40.3433767,66.4878879 39.5378288,66.4865948 C39.2255,66.4865948 38.9600205,66.4284052 38.7491986,66.3029741 C38.690637,66.4271121 38.6099521,66.6469397 38.5383767,66.9469397 C38.4225548,67.4034052 38.3665959,67.7978017 38.3665959,68.1249569 C38.3835137,68.4753879 38.5240616,68.6046983 39.0875548,68.6279741 C39.5911849,68.6318534 40.2327603,68.3292672 40.9836507,67.6775431 C41.7124178,67.0439224 42.2121438,66.3973707 42.4867329,65.7417672 C42.5127603,65.6796983 42.5739247,65.6396121 42.6415959,65.6396121 C42.6415959,65.6396121 43.4028973,65.5284052 43.190774,66.1555603 C42.8472123,67.1525431 42.2681027,67.9827155 41.4625548,68.6409052 C40.6973493,69.275819 39.9113219,69.6055603 39.1148836,69.6055603 L39.1005685,69.6055603 C38.5162534,69.6055603 38.0347466,69.3896121 37.7250205,68.9680603 M40.850911,64.7331466 C41.8464589,63.4930603 41.4885822,62.7546983 41.4885822,62.7546983 C41.3415274,62.776681 41.1411164,62.8646121 40.805363,63.189181 C40.0011164,63.9728017 39.295774,64.9335776 39.0940616,65.4818534 C39.0940616,65.4818534 39.8540616,65.9732328 40.850911,64.7331466" id="Fill-39" fill="#00239C" mask="url(#mask-2)"></path>
                    <path d="M7.41286301,65.3097414 C7.30354795,64.5481034 6.99512329,62.7752586 6.99512329,62.7752586 C6.94046575,62.1933621 6.71663014,61.7808621 6.26635616,61.7640517 C5.71847945,61.7394828 5.59094521,62.192069 5.60005479,62.3731034 C5.63258904,62.9653448 5.64950685,63.5071552 5.64950685,64.0011207 C5.65210959,65.6265517 5.46471233,66.729569 5.17320548,67.3502586 C4.86217808,67.967069 4.60190411,68.1041379 4.12039726,68.1274138 C3.54649315,68.1183621 3.15217808,67.8687931 2.82553425,67.392931 C2.50539726,66.9183621 2.31539726,66.204569 2.31669863,65.4248276 C2.31539726,64.5157759 2.57046575,63.5200862 3.08971233,62.6963793 C3.23676712,62.4610345 3.16519178,62.1506897 2.93094521,62.0019828 C2.69409589,61.854569 2.38436986,61.9256897 2.2360137,62.1610345 L2.2360137,62.1597414 C1.60615068,63.167069 1.3120411,64.3334483 1.31073973,65.4248276 C1.3120411,66.3623276 1.52676712,67.2532759 1.98745205,67.9502586 C2.44032877,68.6459483 3.19772603,69.1386207 4.12039726,69.1308621 C4.1360137,69.1334483 5.44909589,69.1838793 6.08676712,67.7718103 C6.25724658,67.3955172 6.38608219,66.9532759 6.47717808,66.4347414 C6.51752055,66.8718103 6.53834247,67.2765517 6.53834247,67.6437931 C6.53834247,69.0558621 6.25464384,70.3347414 5.69115068,71.4843103 C5.03265753,72.8136207 4.20628767,73.4265517 3.16909589,73.430431 C3.09621918,73.430431 2.45724658,73.4317241 1.74019178,72.9080172 C1.09210959,72.4347414 0.911219178,71.5463793 0.877383562,71.4209483 C0.816219178,71.2166379 0.679575342,71.030431 0.463547945,71.0356034 C0.0366986301,71.0446552 0.00156164384,71.4248276 0.000260273973,71.5683621 C0.0028630137,72.1373276 0.32560274,72.7256897 0.920328767,73.3528448 C1.60484932,74.0847414 2.40519178,74.4687931 3.29142466,74.4675 L3.30053425,74.4675 C4.8010137,74.4675 5.96964384,73.4937931 6.75827397,71.6692241 C7.33608219,70.3476724 7.62758904,69.0196552 7.62758904,67.6877586 C7.63019178,66.255 7.43758904,65.4817241 7.41286301,65.3097414" id="Fill-40" fill="#00239C" mask="url(#mask-2)"></path>
                    <path d="M37.2929658,62.7108621 C37.075637,62.5375862 36.7776233,62.7056897 36.5615959,62.8556897 C36.1659795,63.1931897 35.7872808,63.7337069 35.4046781,64.4681897 C35.1886507,64.8871552 34.0668699,67.6906034 34.0668699,67.6906034 C34.0395411,67.6181897 33.4435137,65.9888793 32.9932397,64.9000862 C32.7355685,64.2742241 32.7694041,64.2289655 32.5755,63.9043966 C32.1265274,63.1194828 31.7881712,63.3522414 31.6033767,63.4750862 C31.2168699,63.7311207 31.3626233,64.0660345 31.3938562,64.1358621 C32.7850205,66.4906034 33.0700205,68.0733621 33.1962534,68.484569 C33.3081712,68.8168966 33.4135822,69.0690517 33.5255,69.2500862 C33.6374178,69.4259483 33.7636507,69.5643103 33.9627603,69.5707759 C34.1748836,69.5487931 34.2594726,69.410431 34.3922123,69.2242241 C34.5145411,69.0315517 34.6524863,68.7561207 34.8099521,68.3901724 C35.2355,67.385431 35.6649521,66.384569 36.0905,65.3811207 C36.4275548,64.6660345 36.7255685,64.1281034 36.9754315,63.7776724 C37.0964589,63.5992241 37.2122808,63.4776724 37.3020753,63.4039655 C37.4660479,63.2306897 37.5675548,62.9319828 37.2929658,62.7108621" id="Fill-41" fill="#00239C" mask="url(#mask-2)"></path>
                    <path d="M25.9104041,69.2319828 C25.3885548,68.6268103 25.0684178,67.4500862 25.0501986,65.3772414 C25.0501986,63.6005172 25.3351986,61.1914655 26.1550616,58.0647414 L26.1550616,58.0673276 C26.2279384,57.7880172 26.5129384,57.6212069 26.7901301,57.6949138 C27.0686233,57.7686207 27.2351986,58.0518103 27.1623219,58.3285345 C26.3593767,61.385431 26.0886918,63.710431 26.0886918,65.3772414 C26.071774,67.3026724 26.4999247,68.3798276 26.6756096,68.5285345 C26.7901301,68.6462069 26.986637,68.7832759 27.5527329,68.5194828 C27.8403356,68.322931 28.1526644,68.4160345 28.3075274,68.6591379 C28.461089,68.8996552 28.3895137,69.2203448 28.1474589,69.3742241 C28.0498562,69.4337069 27.4473219,69.7518103 27.0425959,69.7337069 C26.8682123,69.7233621 26.4192397,69.8216379 25.9104041,69.2319828" id="Fill-42" fill="#00239C" mask="url(#mask-2)"></path>
                    <polygon id="Fill-43" fill="#E4002B" mask="url(#mask-2)" points="91.9835548 61.3774138 92.0238973 62.9821552 91.4239658 62.9821552 91.466911 61.3774138 89.8740342 62.2075862 89.5838288 61.7743966 91.2157466 61.0011207 89.5838288 60.2278448 89.8740342 59.7933621 91.466911 60.6248276 91.4239658 59.0200862 92.0238973 59.0200862 91.9835548 60.6248276 93.5751301 59.7933621 93.866637 60.2278448 92.2347192 61.0011207 93.866637 61.7743966 93.5751301 62.2075862"></polygon>
                </g>
            </g>
        </g>
    </g>
</svg>